<?xml version="1.0" encoding="UTF-8" ?>
<!DOCTYPE svg PUBLIC "-//W3C//DTD SVG 1.1//EN" "http://www.w3.org/Graphics/SVG/1.1/DTD/svg11.dtd">
<svg width="145pt" height="123pt" viewBox="0 0 145 123" version="1.1" xmlns="http://www.w3.org/2000/svg">
<path fill="#acadad" stroke="#acadad" stroke-width="0.09375" opacity="1.00" d=" M 10.9 0.0 L 133.5 0.0 C 138.2 2.8 142.2 6.8 145.0 11.6 L 145.0 18.4 C 143.3 14.9 141.2 11.3 137.9 9.1 C 134.7 6.9 130.7 6.8 127.1 6.7 C 95.1 6.9 63.1 6.7 31.1 6.8 C 26.0 6.8 20.9 6.6 15.8 6.7 C 12.7 6.9 9.5 7.1 6.8 8.7 C 4.1 10.4 1.9 12.8 0.0 15.2 L 0.0 8.6 C 3.3 5.3 7.0 2.5 10.9 0.0 Z" />
<path fill="#333333" stroke="#333333" stroke-width="0.09375" opacity="1.00" d=" M 6.8 8.7 C 9.5 7.1 12.7 6.9 15.8 6.7 C 15.6 15.2 15.5 23.6 15.9 32.1 C 18.5 29.9 21.1 27.7 23.6 25.5 C 26.1 27.8 28.5 30.0 31.0 32.2 C 31.5 23.7 31.5 15.3 31.1 6.8 C 63.1 6.7 95.1 6.9 127.1 6.7 C 130.7 6.8 134.7 6.9 137.9 9.1 C 141.2 11.3 143.3 14.9 145.0 18.4 L 145.0 111.5 C 141.0 116.3 136.4 120.8 130.4 123.0 L 14.6 123.0 C 8.8 121.8 3.3 118.7 0.0 113.5 L 0.0 15.2 C 1.9 12.8 4.1 10.4 6.8 8.7 M 108.6 17.7 C 106.6 18.6 106.3 21.1 106.1 23.1 C 106.1 25.4 106.1 28.3 108.1 29.9 C 111.2 31.1 114.7 30.8 118.0 30.9 C 121.6 30.8 125.4 31.2 128.8 29.8 C 130.4 26.2 130.4 21.8 128.8 18.2 C 125.7 16.9 122.3 17.2 119.0 17.1 C 115.6 17.2 112.0 16.9 108.6 17.7 M 68.5 20.7 C 58.2 22.3 48.5 28.3 43.7 37.6 C 40.1 43.5 39.9 50.5 40.1 57.1 C 40.0 66.5 45.8 75.3 53.5 80.4 C 60.4 84.8 68.7 87.6 76.9 86.8 C 85.1 85.9 92.9 82.5 99.0 77.0 C 106.7 69.5 110.0 57.8 107.5 47.3 C 106.4 42.4 104.1 37.8 101.2 33.7 C 98.0 29.2 93.1 26.3 88.4 23.7 C 82.3 20.4 75.2 19.5 68.5 20.7 Z" />
<path fill="#d1101a" stroke="#d1101a" stroke-width="0.09375" opacity="1.00" d=" M 15.8 6.7 C 20.9 6.6 26.0 6.8 31.1 6.8 C 31.5 15.3 31.5 23.7 31.0 32.2 C 28.5 30.0 26.1 27.8 23.6 25.5 C 21.1 27.7 18.5 29.9 15.9 32.1 C 15.5 23.6 15.6 15.2 15.8 6.7 Z" />
<path fill="#acadad" stroke="#acadad" stroke-width="0.09375" opacity="1.00" d=" M 108.6 17.7 C 112.0 16.9 115.6 17.2 119.0 17.1 C 122.3 17.2 125.7 16.9 128.8 18.2 C 130.4 21.8 130.4 26.2 128.8 29.8 C 125.4 31.2 121.6 30.8 118.0 30.9 C 114.7 30.8 111.2 31.1 108.1 29.9 C 106.1 28.3 106.1 25.4 106.1 23.1 C 106.3 21.1 106.6 18.6 108.6 17.7 Z" />
<path fill="#fefefe" stroke="#fefefe" stroke-width="0.09375" opacity="1.00" d=" M 68.5 20.7 C 75.2 19.5 82.3 20.4 88.4 23.7 C 93.1 26.3 98.0 29.2 101.2 33.7 C 104.1 37.8 106.4 42.4 107.5 47.3 C 110.0 57.8 106.7 69.5 99.0 77.0 C 92.9 82.5 85.1 85.9 76.9 86.8 C 68.7 87.6 60.4 84.8 53.5 80.4 C 45.8 75.3 40.0 66.5 40.1 57.1 C 39.9 50.5 40.1 43.5 43.7 37.6 C 48.5 28.3 58.2 22.3 68.5 20.7 M 55.6 47.2 L 55.7 46.3 C 53.3 50.1 53.2 54.6 54.5 58.8 L 54.6 57.9 C 55.0 59.5 55.7 61.1 56.2 62.7 C 58.0 66.2 60.0 70.0 63.8 71.6 C 70.2 74.3 77.5 73.8 83.8 70.9 L 84.3 71.4 C 86.8 69.1 88.8 66.3 90.8 63.6 L 91.3 64.2 C 92.6 59.3 93.3 54.3 93.0 49.2 L 92.8 48.4 L 91.9 48.1 L 91.2 48.6 C 90.1 42.3 84.5 37.3 78.5 35.7 C 75.5 35.2 72.4 34.3 69.3 35.3 C 63.3 36.9 57.6 41.1 55.6 47.2 Z" />
<path fill="#0c2056" stroke="#0c2056" stroke-width="0.09375" opacity="1.00" d=" M 55.6 47.2 C 57.6 41.1 63.3 36.9 69.3 35.3 C 72.4 34.3 75.5 35.2 78.5 35.7 C 75.6 36.6 72.7 37.6 69.9 38.6 C 69.3 38.8 68.1 39.2 67.6 39.4 C 62.9 41.3 59.0 44.6 55.5 48.1 L 55.6 47.2 Z" />
<path fill="#7b5693" stroke="#7b5693" stroke-width="0.09375" opacity="1.00" d=" M 78.5 35.7 C 84.5 37.3 90.1 42.3 91.2 48.6 C 90.0 47.4 88.8 46.3 87.6 45.2 C 87.3 44.8 86.7 44.0 86.4 43.6 C 85.0 41.9 83.8 39.8 81.6 39.2 C 77.8 38.3 73.8 38.4 69.9 38.6 C 72.7 37.6 75.6 36.6 78.5 35.7 Z" />
<path fill="#7667c3" stroke="#7667c3" stroke-width="0.09375" opacity="1.00" d=" M 67.6 39.4 C 68.1 39.2 69.3 38.8 69.9 38.6 C 73.8 38.4 77.8 38.3 81.6 39.2 C 83.8 39.8 85.0 41.9 86.4 43.6 C 80.1 43.4 73.7 42.8 67.4 43.3 C 67.5 42.0 67.5 40.7 67.6 39.4 Z" />
<path fill="#521c91" stroke="#521c91" stroke-width="0.09375" opacity="1.00" d=" M 55.5 48.1 C 59.0 44.6 62.9 41.3 67.6 39.4 C 67.5 40.7 67.5 42.0 67.4 43.3 C 67.0 43.5 66.3 43.8 66.0 44.0 C 62.4 46.8 59.7 50.6 56.8 54.0 C 56.3 54.3 55.3 55.0 54.8 55.3 C 55.0 52.9 55.2 50.5 55.5 48.1 Z" />
<path fill="#968ae3" stroke="#968ae3" stroke-width="0.09375" opacity="1.00" d=" M 67.4 43.3 C 73.7 42.8 80.1 43.4 86.4 43.6 C 86.7 44.0 87.3 44.8 87.6 45.2 C 85.0 46.6 82.4 48.0 79.7 49.4 C 75.8 48.8 71.8 48.8 67.8 48.8 C 67.2 47.2 66.6 45.6 66.0 44.0 C 66.3 43.8 67.0 43.5 67.4 43.3 Z" />
<path fill="#8e61d5" stroke="#8e61d5" stroke-width="0.09375" opacity="1.00" d=" M 56.8 54.0 C 59.7 50.6 62.4 46.8 66.0 44.0 C 66.6 45.6 67.2 47.2 67.8 48.8 C 66.6 49.8 65.4 50.8 64.1 51.8 C 64.7 52.8 65.2 53.9 65.7 54.9 C 63.0 54.6 60.4 54.2 57.7 54.0 L 56.8 54.0 Z" />
<path fill="#b07fe2" stroke="#b07fe2" stroke-width="0.09375" opacity="1.00" d=" M 79.7 49.4 C 82.4 48.0 85.0 46.6 87.6 45.2 C 88.8 46.3 90.0 47.4 91.2 48.6 C 91.5 48.8 92.1 49.3 92.4 49.5 L 93.0 49.2 C 92.0 51.5 91.0 53.8 90.1 56.1 C 89.3 54.0 88.5 51.9 87.8 49.8 C 85.8 50.0 83.9 50.2 81.9 50.5 C 81.4 50.2 80.3 49.7 79.7 49.4 Z" />
<path fill="#968ae3" stroke="#968ae3" stroke-width="0.09375" opacity="1.00" d=" M 55.7 46.3 L 55.6 47.2 L 55.5 48.1 C 55.2 50.5 55.0 52.9 54.8 55.3 C 54.7 55.9 54.6 57.2 54.6 57.9 L 54.5 58.8 C 53.2 54.6 53.3 50.1 55.7 46.3 Z" />
<path fill="#7b5693" stroke="#7b5693" stroke-width="0.09375" opacity="1.00" d=" M 91.2 48.6 L 91.9 48.1 L 92.8 48.4 L 93.0 49.2 L 92.4 49.5 C 92.1 49.3 91.5 48.8 91.2 48.6 Z" />
<path fill="#7842bd" stroke="#7842bd" stroke-width="0.09375" opacity="1.00" d=" M 64.1 51.8 C 65.4 50.8 66.6 49.8 67.8 48.8 C 68.5 50.2 69.1 51.7 69.7 53.2 C 69.9 53.8 70.3 55.0 70.5 55.6 C 69.5 55.8 67.5 56.1 66.4 56.3 C 66.3 55.9 65.9 55.2 65.7 54.9 C 65.2 53.9 64.7 52.8 64.1 51.8 Z" />
<path fill="#7667c3" stroke="#7667c3" stroke-width="0.09375" opacity="1.00" d=" M 67.8 48.8 C 71.8 48.8 75.8 48.8 79.7 49.4 C 80.3 49.7 81.4 50.2 81.9 50.5 C 82.1 50.9 82.3 51.8 82.5 52.2 C 78.8 52.8 75.1 53.4 71.4 53.8 C 71.0 53.7 70.2 53.4 69.7 53.2 C 69.1 51.7 68.5 50.2 67.8 48.8 Z" />
<path fill="#e3aff9" stroke="#e3aff9" stroke-width="0.09375" opacity="1.00" d=" M 81.9 50.5 C 83.9 50.2 85.8 50.0 87.8 49.8 C 88.5 51.9 89.3 54.0 90.1 56.1 C 89.5 57.7 88.9 59.3 88.3 61.0 C 86.9 60.7 85.5 60.4 84.1 60.2 C 83.6 57.5 83.2 54.8 82.5 52.2 C 82.3 51.8 82.1 50.9 81.9 50.5 Z" />
<path fill="#7b5693" stroke="#7b5693" stroke-width="0.09375" opacity="1.00" d=" M 93.0 49.2 C 93.3 54.3 92.6 59.3 91.3 64.2 L 90.8 63.6 C 90.0 62.8 89.1 61.9 88.3 61.0 C 88.9 59.3 89.5 57.7 90.1 56.1 C 91.0 53.8 92.0 51.5 93.0 49.2 Z" />
<path fill="#7b5693" stroke="#7b5693" stroke-width="0.09375" opacity="1.00" d=" M 71.4 53.8 C 75.1 53.4 78.8 52.8 82.5 52.2 C 83.2 54.8 83.6 57.5 84.1 60.2 L 83.3 60.6 C 79.1 58.9 75.3 56.2 71.4 53.8 Z" />
<path fill="#0c2056" stroke="#0c2056" stroke-width="0.09375" opacity="1.00" d=" M 69.7 53.2 C 70.2 53.4 71.0 53.7 71.4 53.8 C 75.3 56.2 79.1 58.9 83.3 60.6 C 82.4 61.2 81.4 61.9 80.4 62.5 C 77.5 63.1 74.6 63.6 71.7 64.2 C 71.2 63.6 70.8 62.9 70.3 62.3 C 70.4 60.1 70.5 57.9 70.5 55.6 C 70.3 55.0 69.9 53.8 69.7 53.2 Z" />
<path fill="#5b78d0" stroke="#5b78d0" stroke-width="0.09375" opacity="1.00" d=" M 54.8 55.3 C 55.3 55.0 56.3 54.3 56.8 54.0 L 57.7 54.0 C 58.1 55.7 58.6 57.4 58.9 59.1 C 58.9 59.6 58.9 60.5 59.0 61.0 C 58.3 61.4 56.9 62.3 56.2 62.7 C 55.7 61.1 55.0 59.5 54.6 57.9 C 54.6 57.2 54.7 55.9 54.8 55.3 Z" />
<path fill="#62b8e8" stroke="#62b8e8" stroke-width="0.09375" opacity="1.00" d=" M 57.7 54.0 C 60.4 54.2 63.0 54.6 65.7 54.9 C 65.9 55.2 66.3 55.9 66.4 56.3 C 67.6 58.4 68.9 60.4 70.3 62.3 C 70.8 62.9 71.2 63.6 71.7 64.2 C 72.6 65.3 73.5 66.4 74.4 67.5 L 73.5 67.5 C 68.2 66.6 63.2 64.2 59.0 61.0 C 61.3 60.3 63.6 59.6 65.9 58.9 C 65.9 58.1 66.0 56.5 66.1 55.7 C 63.6 55.8 61.2 55.9 58.7 56.0 C 58.8 56.8 58.8 58.3 58.9 59.1 C 58.6 57.4 58.1 55.7 57.7 54.0 Z" />
<path fill="#5b89e2" stroke="#5b89e2" stroke-width="0.09375" opacity="1.00" d=" M 58.7 56.0 C 61.2 55.9 63.6 55.8 66.1 55.7 C 66.0 56.5 65.9 58.1 65.9 58.9 C 63.6 59.6 61.3 60.3 59.0 61.0 C 58.9 60.5 58.9 59.6 58.9 59.1 C 58.8 58.3 58.8 56.8 58.7 56.0 Z" />
<path fill="#2d2c64" stroke="#2d2c64" stroke-width="0.09375" opacity="1.00" d=" M 66.4 56.3 C 67.5 56.1 69.5 55.8 70.5 55.6 C 70.5 57.9 70.4 60.1 70.3 62.3 C 68.9 60.4 67.6 58.4 66.4 56.3 Z" />
<path fill="#7667c3" stroke="#7667c3" stroke-width="0.09375" opacity="1.00" d=" M 83.3 60.6 L 84.1 60.2 C 85.5 60.4 86.9 60.7 88.3 61.0 C 86.5 62.6 84.8 64.3 82.9 65.8 C 82.1 64.7 81.2 63.6 80.4 62.5 C 81.4 61.9 82.4 61.2 83.3 60.6 Z" />
<path fill="#5590b0" stroke="#5590b0" stroke-width="0.09375" opacity="1.00" d=" M 56.2 62.7 C 56.9 62.3 58.3 61.4 59.0 61.0 C 63.2 64.2 68.2 66.6 73.5 67.5 C 72.7 68.7 72.0 70.0 71.0 71.1 C 68.7 72.0 66.2 71.7 63.8 71.6 C 60.0 70.0 58.0 66.2 56.2 62.7 Z" />
<path fill="#2d2c64" stroke="#2d2c64" stroke-width="0.09375" opacity="1.00" d=" M 88.3 61.0 C 89.1 61.9 90.0 62.8 90.8 63.6 C 88.8 66.3 86.8 69.1 84.3 71.4 L 83.8 70.9 C 82.4 69.6 81.0 68.2 79.7 66.8 C 80.8 66.5 81.8 66.2 82.9 65.8 C 84.8 64.3 86.5 62.6 88.3 61.0 Z" />
<path fill="#5b78d0" stroke="#5b78d0" stroke-width="0.09375" opacity="1.00" d=" M 71.7 64.2 C 74.6 63.6 77.5 63.1 80.4 62.5 C 81.2 63.6 82.1 64.7 82.9 65.8 C 81.8 66.2 80.8 66.5 79.7 66.8 C 78.0 67.1 76.2 67.3 74.4 67.5 C 73.5 66.4 72.6 65.3 71.7 64.2 Z" />
<path fill="#0c2056" stroke="#0c2056" stroke-width="0.09375" opacity="1.00" d=" M 73.5 67.5 L 74.4 67.5 C 76.2 67.3 78.0 67.1 79.7 66.8 C 81.0 68.2 82.4 69.6 83.8 70.9 C 77.5 73.8 70.2 74.3 63.8 71.6 C 66.2 71.7 68.7 72.0 71.0 71.1 C 72.0 70.0 72.7 68.7 73.5 67.5 Z" />
</svg>
